<svg id="Layer_1" enable-background="new 0 0 256 256" height="512" viewBox="0 0 256 256" width="512" xmlns="http://www.w3.org/2000/svg"><path d="m236 178.891h-216c-6.627 0-12-5.373-12-12v-91c0-6.627 5.373-12 12-12h216c6.627 0 12 5.373 12 12v91c0 6.627-5.373 12-12 12z" fill="#4671c6"/><path d="m236 180.891h-216c-7.72 0-14-6.28-14-14v-91c0-7.72 6.28-14 14-14h216c7.72 0 14 6.28 14 14v91c0 7.719-6.28 14-14 14zm-216-115c-5.514 0-10 4.486-10 10v91c0 5.514 4.486 10 10 10h216c5.514 0 10-4.486 10-10v-91c0-5.514-4.486-10-10-10z" fill="#3762cc"/><circle cx="69" cy="119.493" fill="#a4c9ff" r="47.5"/><path d="m232 139.209h-101c-2.761 0-5-2.239-5-5v-25.054c0-2.761 2.239-5 5-5h101c2.761 0 5 2.239 5 5v25.054c0 2.761-2.239 5-5 5z" fill="#6bdddd"/><g fill="#e0ebfc"><path d="m139.542 111.437c-4.231 0-6.859 3.836-6.859 10.016.058 6.102 2.566 9.893 6.55 9.893 4.359 0 6.859-3.7 6.859-10.151 0-6.111-2.448-9.758-6.55-9.758zm-.169 16.995c-1.982 0-3.214-2.666-3.214-6.957 0-4.328 1.272-7.125 3.242-7.125 2.796 0 3.214 4.358 3.214 6.956 0 2.661-.421 7.126-3.242 7.126z"/><path d="m153.973 111.437c-4.231 0-6.859 3.836-6.859 10.016.058 6.102 2.566 9.893 6.55 9.893 4.359 0 6.859-3.7 6.859-10.151-.001-6.111-2.449-9.758-6.55-9.758zm-.169 16.995c-1.982 0-3.214-2.666-3.214-6.957 0-4.328 1.272-7.125 3.242-7.125 2.796 0 3.214 4.358 3.214 6.956 0 2.661-.421 7.126-3.242 7.126z"/><path d="m164.183 116.896c-1.269 0-2.188.956-2.188 2.272 0 1.279.929 2.244 2.16 2.244 1.269 0 2.188-.943 2.188-2.258-.036-1.33-.925-2.258-2.16-2.258z"/><path d="m164.183 126.827c-1.269 0-2.188.956-2.188 2.273 0 1.279.929 2.244 2.16 2.244 1.269 0 2.188-.943 2.188-2.258-.036-1.329-.925-2.259-2.16-2.259z"/><path d="m174.226 111.437c-4.231 0-6.859 3.836-6.859 10.016.058 6.102 2.566 9.893 6.55 9.893 4.359 0 6.859-3.7 6.859-10.151-.001-6.111-2.449-9.758-6.55-9.758zm-.169 16.995c-1.982 0-3.214-2.666-3.214-6.957 0-4.328 1.272-7.125 3.242-7.125 2.796 0 3.214 4.358 3.214 6.956 0 2.661-.421 7.126-3.242 7.126z"/><path d="m188.656 111.437c-4.231 0-6.859 3.836-6.859 10.016.058 6.102 2.566 9.893 6.55 9.893 4.359 0 6.859-3.7 6.859-10.151 0-6.111-2.448-9.758-6.55-9.758zm-.169 16.995c-1.982 0-3.214-2.666-3.214-6.957 0-4.328 1.272-7.125 3.242-7.125 2.796 0 3.214 4.358 3.214 6.956 0 2.661-.42 7.126-3.242 7.126z"/><path d="m198.866 116.896c-1.269 0-2.188.956-2.188 2.272 0 1.279.929 2.244 2.16 2.244 1.269 0 2.188-.943 2.188-2.258-.036-1.33-.924-2.258-2.16-2.258z"/><path d="m198.866 126.827c-1.269 0-2.188.956-2.188 2.273 0 1.279.929 2.244 2.16 2.244 1.269 0 2.188-.943 2.188-2.258-.036-1.329-.924-2.259-2.16-2.259z"/><path d="m208.909 111.437c-4.231 0-6.859 3.836-6.859 10.016.058 6.102 2.566 9.893 6.55 9.893 4.359 0 6.859-3.7 6.859-10.151 0-6.111-2.448-9.758-6.55-9.758zm-.169 16.995c-1.982 0-3.214-2.666-3.214-6.957 0-4.328 1.272-7.125 3.242-7.125 2.796 0 3.214 4.358 3.214 6.956 0 2.661-.42 7.126-3.242 7.126z"/><path d="m223.34 111.437c-4.231 0-6.859 3.836-6.859 10.016.058 6.102 2.566 9.893 6.55 9.893 4.359 0 6.859-3.7 6.859-10.151 0-6.111-2.449-9.758-6.55-9.758zm-.169 16.995c-1.982 0-3.214-2.666-3.214-6.957 0-4.328 1.272-7.125 3.242-7.125 2.796 0 3.214 4.358 3.214 6.956 0 2.661-.421 7.126-3.242 7.126z"/></g><path d="m30.608 133.529h18.704c2.771 0 4.703 2.75 3.763 5.357l-24.896 69.039c-.764 2.12 2.016 3.689 3.435 1.938l77.661-95.815c2.119-2.615.258-6.519-3.107-6.519h-15.562c-3.07 0-4.996-3.315-3.475-5.982l30.33-53.173c.761-1.333-.202-2.991-1.737-2.991h-46.715c-.761 0-1.455.431-1.793 1.113l-40.194 81.259c-1.315 2.659.62 5.774 3.586 5.774z" fill="#ffea92"/><path d="m81.681 97.359c-.047-.562-.264-.998-.65-1.308-.387-.309-.872-.44-1.453-.392-.601.05-1.047.268-1.336.653-.29.386-.619.955-.986 1.707l-21.103 41.401c-.34.614-.492 1.124-.458 1.532.045.543.304.966.778 1.268s.934.435 1.38.398c.776-.064 1.43-.656 1.962-1.774l20.983-41.069c.622-1.203.917-2.009.883-2.416z" fill="#f9a7a7"/><path d="m88.443 122.686c-.39-1.391-.988-2.553-1.795-3.487s-1.78-1.634-2.919-2.101c-1.138-.467-2.466-.7-3.983-.7-3.152 0-5.453.958-6.902 2.874-1.45 1.916-2.174 4.771-2.174 8.565 0 2.374.394 4.368 1.182 5.982.788 1.615 1.877 2.812 3.268 3.59s2.972 1.167 4.743 1.167c2.84 0 5.078-.905 6.712-2.714s2.451-4.572 2.451-8.288c0-1.867-.195-3.497-.583-4.888zm-5.662 10.389c-.525 1.236-1.499 1.854-2.918 1.854-1.401 0-2.379-.603-2.933-1.81-.554-1.206-.832-3.113-.832-5.72 0-1.692.112-3.069.336-4.13.224-1.06.608-1.863 1.153-2.407.545-.545 1.304-.817 2.277-.817 1.381 0 2.344.579 2.889 1.736.544 1.158.817 2.991.817 5.501-.002 2.627-.264 4.558-.789 5.793z" fill="#f9a7a7"/><path d="m66.645 109.978c0-1.868-.195-3.492-.584-4.874-.39-1.381-.983-2.553-1.78-3.517-.798-.963-1.77-1.678-2.919-2.145-1.148-.467-2.48-.701-3.998-.701-2.101 0-3.828.438-5.18 1.313s-2.33 2.16-2.932 3.853c-.604 1.692-.905 3.803-.905 6.332 0 2.354.389 4.348 1.167 5.982s1.863 2.836 3.254 3.604c1.391.769 2.962 1.153 4.714 1.153 2.84 0 5.078-.905 6.712-2.714 1.633-1.808 2.451-4.57 2.451-8.286zm-6.231 5.515c-.515 1.226-1.493 1.839-2.932 1.839-.953 0-1.703-.277-2.247-.832-.545-.554-.919-1.376-1.124-2.466s-.307-2.5-.307-4.232c0-1.673.102-3.05.307-4.129.204-1.08.584-1.897 1.138-2.452s1.299-.831 2.233-.831c1.381 0 2.344.579 2.889 1.736.544 1.158.817 3.011.817 5.559-.001 2.647-.259 4.582-.774 5.808z" fill="#f9a7a7"/><path d="m232 141.209h-101c-3.86 0-7-3.141-7-7v-25.055c0-3.859 3.14-7 7-7h101c3.859 0 7 3.141 7 7v25.055c0 3.859-3.141 7-7 7zm-101-35.055c-1.654 0-3 1.346-3 3v25.055c0 1.654 1.346 3 3 3h101c1.654 0 3-1.346 3-3v-25.055c0-1.654-1.346-3-3-3z" fill="#3762cc"/></svg>