<svg xmlns="http://www.w3.org/2000/svg" width="25.393" height="28.082" viewBox="0 0 25.393 28.082">
  <path id="Path_6" data-name="Path 6" d="M21.516-17.607l-1.881,2.489a.5.5,0,0,1-.7.1.5.5,0,0,1-.1-.1l-1.882-2.489H1.006A1.006,1.006,0,0,1,0-18.613V-41.994A1.006,1.006,0,0,1,1.006-43H24.387a1.006,1.006,0,0,1,1.006,1.006v23.381a1.006,1.006,0,0,1-1.006,1.006Zm-12.968-5.6a5.962,5.962,0,0,0,.677.337,5.775,5.775,0,0,0,2.27.449,5.926,5.926,0,0,0,2.28-.438,5.577,5.577,0,0,0,1.853-1.234A5.833,5.833,0,0,0,16.877-26a6.37,6.37,0,0,0,.459-2.456,6.244,6.244,0,0,0-.459-2.419,6.035,6.035,0,0,0-1.25-1.917,5.663,5.663,0,0,0-1.853-1.266,5.743,5.743,0,0,0-2.28-.454,4.294,4.294,0,0,0-.812.08,4.754,4.754,0,0,0-.806.23,3.372,3.372,0,0,0-.726.384,2.648,2.648,0,0,0-.571.534v-5.34H8.548v-.1H5.531v16.342H8.548ZM14.4-28.456a3.236,3.236,0,0,1-.23,1.228,3.109,3.109,0,0,1-.625.983,2.935,2.935,0,0,1-.924.657,2.691,2.691,0,0,1-1.127.24,2.691,2.691,0,0,1-1.127-.24,2.935,2.935,0,0,1-.924-.657,3.035,3.035,0,0,1-.619-.983A3.3,3.3,0,0,1,8.6-28.456a3.093,3.093,0,0,1,.224-1.159,3.246,3.246,0,0,1,.619-.993,3.107,3.107,0,0,1,.924-.694,2.506,2.506,0,0,1,1.127-.262,2.743,2.743,0,0,1,1.127.235,2.864,2.864,0,0,1,.924.651,3.1,3.1,0,0,1,.625.988A3.277,3.277,0,0,1,14.4-28.456Zm4.2,6.826a1.508,1.508,0,0,0,1.508-1.508A1.508,1.508,0,0,0,18.6-24.647,1.508,1.508,0,0,0,17.1-23.138,1.508,1.508,0,0,0,18.6-21.63Z" transform="translate(0 43)" fill="#fff"/>
</svg>
